<svg width="17" height="13" viewBox="0 0 17 13" fill="none" xmlns="http://www.w3.org/2000/svg">
<path d="M11.5708 10.7443L11.5708 12.3973L5.12455e-08 12.3973L4.44128e-08 10.7443C4.44128e-08 10.7443 3.07474e-08 7.4384 5.78539 7.4384C11.5708 7.4384 11.5708 10.7443 11.5708 10.7443ZM8.67808 2.89274C8.67808 2.32062 8.50843 1.76134 8.19057 1.28564C7.87272 0.809942 7.42094 0.439178 6.89237 0.220237C6.3638 0.00129562 5.78218 -0.0559894 5.22105 0.0556259C4.65992 0.167241 4.14449 0.442743 3.73994 0.847294C3.33539 1.25184 3.05989 1.76727 2.94828 2.3284C2.83666 2.88953 2.89395 3.47115 3.11289 3.99972C3.33183 4.52829 3.70259 4.98007 4.17829 5.29792C4.65399 5.61578 5.21327 5.78543 5.78539 5.78543C6.55258 5.78543 7.28834 5.48066 7.83083 4.93818C8.37331 4.39569 8.67808 3.65993 8.67808 2.89274ZM11.5212 7.4384C12.0293 7.83159 12.445 8.33136 12.7392 8.90252C13.0333 9.47368 13.1987 10.1024 13.2237 10.7443L13.2237 12.3973L16.5297 12.3973L16.5297 10.7443C16.5297 10.7443 16.5297 7.7442 11.5212 7.4384ZM10.7443 4.34113e-05C10.1754 -0.00312426 9.61904 0.166956 9.14917 0.487669C9.65121 1.18914 9.92116 2.03012 9.92116 2.89274C9.92116 3.75535 9.65122 4.59634 9.14917 5.2978C9.61904 5.61852 10.1754 5.7886 10.7443 5.78543C11.5115 5.78543 12.2472 5.48066 12.7897 4.93818C13.3322 4.39569 13.637 3.65993 13.637 2.89274C13.637 2.12555 13.3322 1.38978 12.7897 0.847294C12.2472 0.304809 11.5115 4.34081e-05 10.7443 4.34113e-05Z" fill="#FBFBFB"/>
</svg>
